<svg width="57" height="58" viewBox="0 0 57 58" fill="none" xmlns="http://www.w3.org/2000/svg">
<path d="M16.59 24.7584C18.5173 24.7457 20.4368 23.9416 21.7584 22.5548C23.0712 21.1702 23.8221 19.256 23.7088 17.387C23.6403 15.5175 22.7461 13.7421 21.3908 12.5873C20.0315 11.434 18.2279 10.897 16.5916 11.158C18.2218 11.4081 19.6587 12.2121 20.6003 13.3776C21.5634 14.5244 22.0096 15.9895 21.9295 17.3866C21.8046 20.222 19.2949 22.5553 16.5904 22.4709C13.8863 22.5518 11.3794 20.2187 11.2555 17.3854C11.1752 15.9892 11.622 14.525 12.5844 13.379C13.5252 12.2134 14.9615 11.41 16.5916 11.158C14.9551 10.895 13.151 11.4317 11.7899 12.5841C10.4332 13.7391 9.5387 15.515 9.46941 17.3854C9.35492 19.2556 10.1086 21.1697 11.4201 22.5558C12.7444 23.9396 14.6619 24.7484 16.59 24.7584Z" fill="white"/>
<path d="M54.3782 46.6353L52.3414 38.6871L50.2728 30.7466C50.2283 30.5794 48.91 25.6223 48.9546 25.79L48.8228 25.2942C48.7638 25.0888 48.6936 24.8812 48.591 24.6911C48.1997 23.9189 47.4528 23.3471 46.6161 23.1837C46.4087 23.1369 46.1958 23.1259 45.9855 23.1252C45.8704 23.1288 44.3294 23.1763 44.4445 23.1727L42.3935 23.2368C37.2713 23.4032 36.4518 23.3982 31.0762 23.63C31.1228 23.5343 31.183 23.4456 31.2277 23.349C33.4913 18.5465 33.0362 12.5876 30.1224 8.09487C27.2576 3.56964 21.9812 0.673265 16.6012 0.716991C11.2042 0.656081 5.96421 3.60184 3.07859 8.09648C1.93799 9.84045 1.1845 11.8117 0.808216 13.8496C0.734383 14.1892 0.668094 14.5306 0.614449 14.8746C0.429623 16.3705 0.392462 17.8875 0.607813 19.3869C1.04033 22.383 2.35702 25.2419 4.3299 27.5409C5.18669 28.6046 6.32289 29.492 7.23361 30.2714C5.83268 35.1273 4.52995 40.0069 3.17198 44.8732L1.05884 52.8029L0.794176 53.814C0.688281 54.2542 0.684439 54.7275 0.786073 55.1765C0.984939 56.0777 1.60172 56.8699 2.43721 57.2858C2.85276 57.4943 3.31957 57.6108 3.78213 57.6167C3.89963 57.6187 7.06184 57.6714 6.86577 57.6681C17.8048 57.8501 28.7438 57.8989 39.6829 57.9188C53.6868 57.8733 52.8254 57.8821 53.0852 57.8644C53.5853 57.8323 54.0853 57.6856 54.525 57.4372C55.4104 56.9453 56.0362 56.0473 56.2028 55.0523C56.2935 54.5692 56.2444 54.0115 56.1348 53.5962C56.0696 53.3378 54.3487 46.5185 54.3782 46.6353ZM52.434 47.1057L52.7881 48.6344C50.3985 48.3744 48.0088 48.1869 45.6192 48.0434C45.1356 45.3252 44.5373 42.6347 43.9081 39.9518C43.8935 39.8934 43.8776 39.8354 43.8629 39.777C46.1091 39.6288 48.3554 39.4132 50.6016 39.0592C50.7524 39.7211 52.5485 47.6084 52.434 47.1057ZM44.4445 24.1601C44.5597 24.1638 46.0954 24.2123 45.9802 24.2087C46.1109 24.2196 46.2414 24.2321 46.3657 24.2707C46.8658 24.4063 47.2963 24.7646 47.4998 25.2275C47.6032 25.4368 47.6456 25.7301 47.7279 26.0868C47.7623 26.2442 48.8904 31.4129 48.8216 31.0978L50.5382 38.7756C48.163 38.4042 45.7876 38.1845 43.4124 38.0359C42.8696 35.9252 42.3071 33.8194 41.6584 31.7344C40.8606 29.1245 39.9867 26.5329 38.9209 23.9877C39.0381 23.9914 44.6193 24.1656 44.4445 24.1601ZM43.7073 47.9326C40.1823 47.7529 37.4501 47.666 34.4558 47.6129C34.0622 45.5028 33.6113 43.4066 33.1232 41.3195C33.0147 40.8877 32.8974 40.4581 32.7869 40.0269C33.6088 40.0412 34.4308 40.0601 35.2528 40.0661C37.3521 40.0484 39.4516 39.9952 41.551 39.8958C41.5968 40.0935 41.6386 40.2922 41.6848 40.4898C42.3068 42.9833 42.9642 45.4683 43.7073 47.9326ZM38.8198 23.9846C39.0349 26.7448 39.4437 29.4581 39.929 32.1529C40.268 34.0911 40.6788 36.0121 41.1076 37.9286C39.1561 37.8446 37.2044 37.7951 35.2528 37.7786C34.24 37.7861 33.2272 37.806 32.2144 37.827C31.8484 36.4738 31.4641 35.1249 31.0389 33.786C30.3495 31.5725 29.5898 29.3759 28.6787 27.2161C29.6119 26.1549 30.411 24.9745 31.0378 23.7014C36.0369 23.9174 37.7359 23.9485 38.8198 23.9846ZM27.1378 39.8154C28.2508 39.8903 29.364 39.9315 30.4771 39.9686C30.6186 40.5981 30.7537 41.2291 30.8999 41.8575C31.3802 43.7778 31.8961 45.6895 32.4534 47.5913C31.0809 47.5744 29.7085 47.5547 28.336 47.5471C24.783 47.5642 21.2299 47.6194 17.6768 47.7429C18.2032 44.7791 18.7585 41.8452 19.6609 39.0221C22.1532 39.429 24.6455 39.6609 27.1378 39.8154ZM19.7272 38.8122C19.8364 38.4782 19.9246 38.1376 20.0452 37.8071C20.228 37.3047 20.4249 36.8058 20.6315 36.3105C20.9063 35.7811 21.1985 35.2607 21.5143 34.7524C22.7429 32.6656 24.4141 30.8774 26.3329 29.421C27.0905 28.8578 27.7758 28.1974 28.422 27.4974C28.6032 29.7608 28.923 31.9907 29.3096 34.2044C29.5187 35.4419 29.7606 36.6715 30.0181 37.8972C29.058 37.9329 28.0979 37.9647 27.1378 38.0293C24.6675 38.1824 22.1974 38.4122 19.7272 38.8122ZM6.04146 26.0627C4.31376 24.0978 3.17987 21.64 2.74561 19.059C2.53452 17.8805 2.4984 16.6808 2.60772 15.4925C2.864 13.2747 3.61888 11.1226 4.88382 9.28451C6.18179 7.37108 7.92842 5.74906 9.9629 4.65659C11.9998 3.57516 14.2897 2.95761 16.5995 3.00448C21.2286 2.93323 25.7717 5.39534 28.3087 9.2813C30.9305 13.1133 31.4102 18.3007 29.5923 22.6307C28.6868 24.8003 27.2388 26.7286 25.3952 28.25C23.4254 29.9071 21.7184 31.9169 20.5363 34.2025C20.237 34.7795 19.9626 35.3642 19.7087 35.9548C19.4617 36.4254 19.2243 36.9011 18.9984 37.3819C17.9975 39.6264 17.2864 41.9667 16.6912 44.3206C16.3993 42.9279 16.0661 41.5352 15.6628 40.1487C14.8579 37.3588 13.7177 34.6553 12.0136 32.1693C11.1495 30.9416 10.1417 29.8322 9.05009 28.8306C7.89789 27.7849 6.88421 27.091 6.04146 26.0627ZM4.26256 45.1371C5.2761 40.2042 6.34426 35.2844 7.31554 30.3413C7.38169 30.3983 7.45671 30.4599 7.51986 30.5157C8.51433 31.411 9.42225 32.394 10.1922 33.4669C11.6971 35.6272 12.8241 38.1671 13.6668 40.7635C14.4059 43.0449 14.9377 45.4204 15.478 47.814C11.4829 47.9792 7.4878 48.223 3.49266 48.6738L4.26256 45.1371ZM4.81474 55.9155L3.79631 55.9311C3.57439 55.9375 3.35904 55.8899 3.15996 55.8001C2.76118 55.6218 2.43959 55.2446 2.32846 54.8107C2.27153 54.5943 2.26468 54.3666 2.30617 54.1396L2.51698 53.1557L3.48533 48.7074C7.60012 49.1718 11.715 49.4185 15.8297 49.584C19.9985 49.7659 24.1673 49.8147 28.336 49.8347C29.9262 49.826 31.5164 49.8057 33.1066 49.7835C33.7285 51.758 34.4108 53.7179 35.2123 55.6489C14.2351 55.706 6.77477 55.893 4.81474 55.9155ZM39.6829 55.6313C38.3218 55.6339 36.9608 55.6438 35.5997 55.6474C35.4414 53.6625 35.1735 51.7042 34.8474 49.7598C37.5237 49.709 40.3512 49.6273 44.1569 49.4259C44.8091 51.5205 45.5209 53.6005 46.347 55.653L39.6829 55.6313ZM54.0748 54.6759C54.0094 55.0299 53.7652 55.3517 53.4534 55.5227C53.2972 55.6086 53.1254 55.6578 52.9438 55.6682C52.8904 55.6778 52.656 55.6724 52.502 55.673C52.1624 55.6719 46.3436 55.653 46.7012 55.6542C46.5074 53.5223 46.2057 51.4165 45.8454 49.3249C48.1681 49.1826 50.4909 48.9981 52.8137 48.7449C52.8691 48.9842 54.1221 54.3942 54.0539 54.0997C54.1077 54.3477 54.1076 54.4852 54.0748 54.6759Z" fill="white"/>
</svg>
