<svg width="60" height="60" viewBox="0 0 60 60" fill="none" xmlns="http://www.w3.org/2000/svg">
<g clip-path="url(#clip0_151_363)">
<path d="M36.1846 32.6639V24.3711" stroke="white" stroke-width="1.75781" stroke-miterlimit="10" stroke-linecap="round" stroke-linejoin="round"/>
<path d="M36.185 39.6089C34.2702 39.6089 32.7125 38.0512 32.7125 36.1364C32.7125 34.2217 34.2703 32.6639 36.185 32.6639C38.0997 32.6639 39.6575 34.2217 39.6575 36.1364C39.6575 38.0512 38.0997 39.6089 36.185 39.6089Z" stroke="white" stroke-width="1.75781" stroke-miterlimit="10" stroke-linecap="round" stroke-linejoin="round"/>
<path d="M40.5588 13.2812V10.7513C40.5588 9.5405 41.5404 8.55894 42.7511 8.55894C44.8443 8.55894 46.557 6.84624 46.557 4.75304C46.557 2.65984 44.8443 0.947144 42.7511 0.947144H29.6188C27.5256 0.947144 25.8129 2.65984 25.8129 4.75304C25.8129 6.84624 27.5256 8.55894 29.6188 8.55894C30.8295 8.55894 31.8111 9.5405 31.8111 10.7513V13.2812" stroke="white" stroke-width="1.75781" stroke-miterlimit="10" stroke-linecap="round" stroke-linejoin="round"/>
<path d="M13.7279 31.4269C13.9263 30.4719 14.1841 29.5387 14.4971 28.6315" stroke="white" stroke-width="1.75781" stroke-miterlimit="10" stroke-linecap="round" stroke-linejoin="round"/>
<path d="M16.7753 48.3432C14.8955 45.3653 13.682 41.9248 13.3444 38.231" stroke="white" stroke-width="1.75781" stroke-miterlimit="10" stroke-linecap="round" stroke-linejoin="round"/>
<path d="M16.6561 24.0804C20.6963 17.539 27.9314 13.1799 36.1845 13.1799C48.852 13.1799 59.1211 23.449 59.1211 36.1165C59.1211 48.784 48.852 59.053 36.1845 59.053C31.3469 59.053 26.8592 57.5553 23.1596 54.9984" stroke="white" stroke-width="1.75781" stroke-miterlimit="10" stroke-linecap="round" stroke-linejoin="round"/>
<path d="M11.6496 14.6869H4.11211C2.32652 14.6869 0.878906 16.1344 0.878906 17.9201C0.878906 19.7057 2.32641 21.1533 4.11211 21.1533H11.6496C13.4352 21.1533 14.8828 19.7058 14.8828 17.9201C14.8828 16.1344 13.4353 14.6869 11.6496 14.6869Z" stroke="white" stroke-width="1.75781" stroke-miterlimit="10" stroke-linecap="round" stroke-linejoin="round"/>
<path d="M20.3527 31.4243C20.6558 30.4031 21.0553 29.423 21.5406 28.4944" stroke="white" stroke-width="1.75781" stroke-miterlimit="10" stroke-linecap="round" stroke-linejoin="round"/>
<path d="M24.9751 48.2288C22.1777 45.638 20.2765 42.093 19.7941 38.1166" stroke="white" stroke-width="1.75781" stroke-miterlimit="10" stroke-linecap="round" stroke-linejoin="round"/>
<path d="M49.2807 26.072C51.4215 28.8566 52.6956 32.3406 52.6956 36.1165C52.6956 45.2207 45.2887 52.6274 36.1847 52.6274C34.8453 52.6274 33.5428 52.4671 32.2951 52.1648" stroke="white" stroke-width="1.75781" stroke-miterlimit="10" stroke-linecap="round" stroke-linejoin="round"/>
<path d="M24.8224 24.1474C27.7846 21.334 31.7866 19.6055 36.1847 19.6055C40.1957 19.6055 43.8773 21.0431 46.7411 23.4302" stroke="white" stroke-width="1.75781" stroke-miterlimit="10" stroke-linecap="round" stroke-linejoin="round"/>
<path d="M28.958 48.4753H4.11211C2.32652 48.4753 0.878906 49.9228 0.878906 51.7085C0.878906 53.4941 2.32641 54.9417 4.11211 54.9417H28.958C30.7362 54.9417 32.1912 53.4869 32.1912 51.7085C32.1912 49.9303 30.7362 48.4753 28.958 48.4753Z" stroke="white" stroke-width="1.75781" stroke-miterlimit="10" stroke-linecap="round" stroke-linejoin="round"/>
<path d="M8.11816 41.161H2.97926C1.81922 41.161 0.878906 42.1013 0.878906 43.2614C0.878906 44.4214 1.81922 45.3617 2.97926 45.3617H8.11816C9.2734 45.3617 10.2185 44.4166 10.2185 43.2614C10.2185 42.1061 9.2734 41.161 8.11816 41.161Z" stroke="white" stroke-width="1.75781" stroke-miterlimit="10" stroke-linecap="round" stroke-linejoin="round"/>
<path d="M9.70699 38.0475H23.0987C24.8769 38.0475 26.3319 36.5926 26.3319 34.8143C26.3319 33.0361 24.877 31.5811 23.0987 31.5811H4.11211C2.32652 31.5811 0.878906 33.0286 0.878906 34.8143C0.878906 36.5998 2.32641 38.0475 4.11211 38.0475H6.07418" stroke="white" stroke-width="1.75781" stroke-miterlimit="10" stroke-linecap="round" stroke-linejoin="round"/>
<path d="M29.5773 24.2667H2.97926C1.81922 24.2667 0.878906 25.2072 0.878906 26.3672C0.878906 27.5272 1.81922 28.4675 2.97926 28.4675H29.6257C30.8491 28.4675 31.8369 27.4075 31.716 26.1606C31.611 25.0766 30.6663 24.2667 29.5773 24.2667Z" stroke="white" stroke-width="1.75781" stroke-miterlimit="10" stroke-linecap="round" stroke-linejoin="round"/>
<path d="M28.8668 42.9099V44.3162" stroke="white" stroke-width="1.75781" stroke-miterlimit="10" stroke-linecap="round" stroke-linejoin="round"/>
<path d="M43.5032 42.9099V44.3162" stroke="white" stroke-width="1.75781" stroke-miterlimit="10" stroke-linecap="round" stroke-linejoin="round"/>
<path d="M34.2556 44.2743C34.7247 44.8127 35.4148 45.1533 36.1849 45.1533C36.9551 45.1533 37.6452 44.8127 38.1143 44.2743" stroke="white" stroke-width="1.75781" stroke-miterlimit="10" stroke-linecap="round" stroke-linejoin="round"/>
</g>
<defs>
<clipPath id="clip0_151_363">
<rect width="60" height="60" fill="white"/>
</clipPath>
</defs>
</svg>
