<svg width="47" height="48" viewBox="0 0 47 48" fill="none" xmlns="http://www.w3.org/2000/svg">
<path d="M40.8555 17.7354H34.2005V14.6899C34.2005 14.467 34.0692 14.2653 33.8661 14.1746C33.6626 14.0839 33.4249 14.1218 33.2593 14.2707L26.0403 20.7678C25.9216 20.8747 25.8535 21.0272 25.8535 21.187C25.8535 21.3467 25.9212 21.4992 26.0403 21.6061L33.2593 28.1032C33.3649 28.1984 33.4998 28.248 33.6369 28.248C33.7145 28.248 33.7926 28.2322 33.8661 28.1993C34.0696 28.1086 34.2005 27.9069 34.2005 27.684V24.6385H40.8555C41.1668 24.6385 41.4194 24.3859 41.4194 24.0746V18.2994C41.4194 17.9881 41.1668 17.7354 40.8555 17.7354ZM40.2915 23.5106H33.6365C33.3252 23.5106 33.0725 23.7632 33.0725 24.0746V26.4176L27.2608 21.187L33.0725 15.9564V18.2994C33.0725 18.6107 33.3252 18.8634 33.6365 18.8634H40.2915V23.5106Z" fill="#FF6600"/>
<path d="M6.76835 8.43013C6.76835 7.81426 7.26961 7.31299 7.88548 7.31299H31.9554C32.5712 7.31299 33.0725 7.81426 33.0725 8.43013V11.8023H34.2005V8.43013C34.2005 7.19208 33.1934 6.18503 31.9554 6.18503H7.88548C6.64743 6.18503 5.64038 7.19208 5.64038 8.43013V24.0746H6.76835V8.43013Z" fill="#FF6600"/>
<path d="M33.0725 34.339H28.8205C27.5825 34.339 26.5754 35.3461 26.5754 36.5841V40.8361H7.88548C7.26961 40.8361 6.76835 40.3348 6.76835 39.719V26.2402H5.64038V39.719C5.64038 40.957 6.64743 41.9641 7.88548 41.9641H27.1394C27.1421 41.9641 27.1448 41.9636 27.1475 41.9636C27.1633 41.9636 27.1791 41.9627 27.1944 41.9614C27.2035 41.9605 27.212 41.9587 27.2211 41.9573C27.2305 41.956 27.24 41.9551 27.249 41.9532C27.2581 41.9514 27.2671 41.9487 27.2761 41.9465C27.2847 41.9442 27.2937 41.9424 27.3023 41.9397C27.3109 41.937 27.3185 41.9338 27.3266 41.9311C27.3357 41.928 27.3451 41.9248 27.3542 41.9212C27.3614 41.9181 27.3682 41.9144 27.3754 41.9113C27.3848 41.9068 27.3948 41.9027 27.4043 41.8978C27.411 41.8941 27.4173 41.8901 27.4237 41.886C27.4331 41.8806 27.4426 41.8752 27.4516 41.8693C27.4588 41.8644 27.4656 41.8589 27.4728 41.8535C27.4805 41.8477 27.4886 41.8423 27.4963 41.8364C27.5107 41.8247 27.5247 41.812 27.5378 41.7989L34.0349 35.3019C34.0471 35.2897 34.0579 35.277 34.0687 35.2644C34.0719 35.2608 34.0746 35.2567 34.0777 35.2531C34.0854 35.2432 34.0931 35.2333 34.1003 35.2229C34.103 35.2188 34.1057 35.2152 34.1084 35.2112C34.1175 35.1976 34.1256 35.1836 34.1332 35.1697C34.1332 35.1692 34.1337 35.1688 34.1341 35.1683C34.1423 35.1534 34.149 35.1381 34.1558 35.1227C34.1576 35.1187 34.159 35.1146 34.1608 35.1106C34.1653 35.0988 34.1698 35.0866 34.1734 35.0749C34.1748 35.0704 34.1761 35.0659 34.1775 35.0614C34.182 35.0456 34.186 35.0302 34.1892 35.014C34.1892 35.0136 34.1892 35.0136 34.1892 35.0131C34.1923 34.9969 34.1946 34.9802 34.1964 34.9635C34.1969 34.959 34.1973 34.9544 34.1978 34.9499C34.1987 34.9368 34.1996 34.9242 34.1996 34.9111C34.1996 34.9084 34.2 34.9057 34.2 34.903V30.5716H33.0721V34.339H33.0725ZM27.7034 40.0384V36.5841C27.7034 35.9683 28.2047 35.467 28.8205 35.467H32.2748L27.7034 40.0384Z" fill="#FF6600"/>
<path d="M11.2576 23.5106H22.086V24.6386H11.2576V23.5106Z" fill="#FF6600"/>
<path d="M19.1987 35.0609H22.0863V36.1889H19.1987V35.0609Z" fill="#FF6600"/>
<path d="M11.2576 35.0609H17.7547V36.1889H11.2576V35.0609Z" fill="#FF6600"/>
<path d="M11.8218 13.0882H16.3111V11.9602H11.2578C10.9465 11.9602 10.6938 12.2129 10.6938 12.5242V18.2994C10.6938 18.6107 10.9465 18.8634 11.2578 18.8634H22.0863V17.7354H11.8218V13.0882Z" fill="#FF6600"/>
<path d="M17.7546 11.9602H28.5831V13.0882H17.7546V11.9602Z" fill="#FF6600"/>
<path d="M11.2576 29.2858H13.4233V30.4137H11.2576V29.2858Z" fill="#FF6600"/>
<path d="M14.8672 29.2858H28.5832V30.4137H14.8672V29.2858Z" fill="#FF6600"/>
</svg>
