<svg width="30" height="36" viewBox="0 0 30 36" fill="none" xmlns="http://www.w3.org/2000/svg">
<path d="M1.74833 2.43013C1.74833 1.81426 2.24959 1.31299 2.86546 1.31299H26.9353C27.5512 1.31299 28.0525 1.81426 28.0525 2.43013V22.773H29.1805V2.43013C29.1805 1.19208 28.1734 0.185028 26.9353 0.185028H2.86546C1.62741 0.185028 0.620361 1.19208 0.620361 2.43013V18.0746H1.74833V2.43013Z" fill="white"/>
<path d="M28.0525 28.339H23.8005C22.5625 28.339 21.5554 29.3461 21.5554 30.5841V34.8361H2.86546C2.24959 34.8361 1.74833 34.3348 1.74833 33.719V20.2402H0.620361V33.719C0.620361 34.957 1.62741 35.9641 2.86546 35.9641H22.1194C22.1221 35.9641 22.1248 35.9636 22.1275 35.9636C22.1433 35.9636 22.1591 35.9627 22.1744 35.9614C22.1835 35.9605 22.192 35.9587 22.201 35.9573C22.2105 35.956 22.22 35.9551 22.229 35.9532C22.238 35.9514 22.2471 35.9487 22.2561 35.9465C22.2647 35.9442 22.2737 35.9424 22.2823 35.9397C22.2908 35.937 22.2985 35.9338 22.3066 35.9311C22.3157 35.928 22.3251 35.9248 22.3342 35.9212C22.3414 35.9181 22.3481 35.9144 22.3554 35.9113C22.3648 35.9068 22.3748 35.9027 22.3842 35.8978C22.391 35.8941 22.3973 35.8901 22.4036 35.886C22.4131 35.8806 22.4226 35.8752 22.4316 35.8693C22.4388 35.8644 22.4456 35.8589 22.4528 35.8535C22.4605 35.8477 22.4686 35.8423 22.4763 35.8364C22.4907 35.8247 22.5047 35.812 22.5178 35.7989L29.0149 29.3019C29.027 29.2897 29.0379 29.277 29.0487 29.2644C29.0519 29.2608 29.0546 29.2567 29.0577 29.2531C29.0654 29.2432 29.0731 29.2333 29.0803 29.2229C29.083 29.2188 29.0857 29.2152 29.0884 29.2112C29.0974 29.1976 29.1056 29.1836 29.1132 29.1697C29.1132 29.1692 29.1137 29.1688 29.1141 29.1683C29.1222 29.1534 29.129 29.1381 29.1358 29.1227C29.1376 29.1187 29.1389 29.1146 29.1407 29.1106C29.1453 29.0988 29.1498 29.0866 29.1534 29.0749C29.1547 29.0704 29.1561 29.0659 29.1574 29.0614C29.162 29.0456 29.166 29.0302 29.1692 29.014C29.1692 29.0136 29.1692 29.0136 29.1692 29.0131C29.1723 28.9969 29.1746 28.9802 29.1764 28.9635C29.1768 28.959 29.1773 28.9544 29.1777 28.9499C29.1786 28.9368 29.1795 28.9242 29.1795 28.9111C29.1795 28.9084 29.18 28.9057 29.18 28.903V24.5716H28.052V28.339H28.0525ZM22.6834 34.0384V30.5841C22.6834 29.9683 23.1846 29.467 23.8005 29.467H27.2548L22.6834 34.0384Z" fill="white"/>
<path d="M6.23755 17.5106H17.066V18.6386H6.23755V17.5106Z" fill="white"/>
<path d="M14.1785 29.0609H17.0661V30.1889H14.1785V29.0609Z" fill="white"/>
<path d="M6.23755 29.0609H12.7346V30.1889H6.23755V29.0609Z" fill="white"/>
<path d="M6.80131 7.08817H11.2906V5.96021H6.23732C5.926 5.96021 5.67334 6.21287 5.67334 6.52419V12.2994C5.67334 12.6107 5.926 12.8634 6.23732 12.8634H17.0658V11.7354H6.80131V7.08817Z" fill="white"/>
<path d="M12.7346 5.96021H23.5631V7.08817H12.7346V5.96021Z" fill="white"/>
<path d="M6.23755 23.2858H8.40324V24.4137H6.23755V23.2858Z" fill="white"/>
<path d="M9.84717 23.2858H23.5632V24.4137H9.84717V23.2858Z" fill="white"/>
</svg>
