<svg width="58" height="58" viewBox="0 0 58 58" fill="none" xmlns="http://www.w3.org/2000/svg">
<path d="M33.2042 12.4936C33.399 12.5742 33.6197 12.5378 33.7823 12.398C33.9451 12.2585 34.0256 12.037 33.9928 11.8174C33.96 11.5975 33.8194 11.4133 33.624 11.3339C32.3991 10.8324 31.0327 10.8983 29.8551 11.515C28.6775 12.1317 27.7956 13.2434 27.4223 14.5818H26.5841C26.2612 14.5818 26 14.86 26 15.203C26 15.5461 26.2612 15.8243 26.5841 15.8243H27.2349C27.2329 15.8828 27.2309 15.9408 27.2309 15.9999C27.2309 16.175 27.2398 16.3494 27.2566 16.5232H26.5841C26.2612 16.5232 26 16.8014 26 17.1444C26 17.4875 26.2612 17.7657 26.5841 17.7657H27.5324C27.9756 19.0118 28.8677 20.0187 30.0111 20.5632C31.1545 21.1074 32.4547 21.1447 33.6237 20.6663C33.9249 20.5428 34.0749 20.1834 33.9591 19.863C33.843 19.543 33.5051 19.3834 33.2039 19.5066C31.5366 20.1876 29.6534 19.4411 28.8115 17.7657H32.279C32.6016 17.7657 32.8631 17.4875 32.8631 17.1444C32.8631 16.8014 32.6016 16.5232 32.279 16.5232H28.4336C28.4108 16.35 28.3991 16.175 28.3991 15.9999C28.3991 15.9411 28.4005 15.8825 28.4031 15.8243H32.6441C32.9666 15.8243 33.2282 15.5461 33.2282 15.203C33.2282 14.86 32.9666 14.5818 32.6441 14.5818H28.6587C29.3876 12.6865 31.4071 11.7585 33.2042 12.4936Z" fill="white"/>
<path d="M53.3226 18.7096H44.6105C44.8013 17.7825 44.9033 16.8433 44.9033 15.9031C44.9033 8.16572 38.6084 1.87085 30.871 1.87085C23.1336 1.87085 16.8387 8.16572 16.8387 15.9031C16.8387 23.6405 23.1336 29.9354 30.871 29.9354C32.4744 29.9354 34.0414 29.6566 35.5484 29.1168V53.3225C35.5484 55.9016 37.6467 57.9999 40.2258 57.9999H53.3226C55.9017 57.9999 58 55.9016 58 53.3225V23.387C58 20.8078 55.9017 18.7096 53.3226 18.7096ZM56.1291 23.387V26.1934H37.4194V23.387C37.4194 21.8397 38.6786 20.5805 40.2258 20.5805H53.3226C54.8699 20.5805 56.1291 21.8397 56.1291 23.387ZM38.6851 18.9911C37.0293 19.5739 35.8122 21.0511 35.6027 22.8481C34.1976 23.8098 32.5717 24.3225 30.871 24.3225C26.2282 24.3225 22.4516 20.5459 22.4516 15.9031C22.4516 11.2603 26.2282 7.48375 30.871 7.48375C35.5138 7.48375 39.2904 11.2603 39.2904 15.9031C39.2904 16.9639 39.0799 17.9995 38.6851 18.9911ZM56.1291 28.0644V48.645H37.4194V28.0644H56.1291ZM30.871 28.0644C24.1655 28.0644 18.7097 22.6087 18.7097 15.9031C18.7097 9.19756 24.1655 3.74182 30.871 3.74182C37.5766 3.74182 43.0323 9.19756 43.0323 15.9031C43.0323 16.8433 42.9154 17.7844 42.6955 18.7096H40.7544C41.0154 17.7965 41.1613 16.8592 41.1613 15.9031C41.1613 10.2294 36.5447 5.61279 30.871 5.61279C25.1973 5.61279 20.5807 10.2294 20.5807 15.9031C20.5807 21.5768 25.1973 26.1934 30.871 26.1934C32.5165 26.1934 34.1059 25.8024 35.5484 25.0587V27.0971C34.0507 27.7276 32.4828 28.0644 30.871 28.0644ZM53.3226 56.1289H40.2258C38.6786 56.1289 37.4194 54.8698 37.4194 53.3225V50.516H56.1291V53.3225C56.1291 54.8698 54.8699 56.1289 53.3226 56.1289Z" fill="white"/>
<path d="M49.5807 52.3872H43.9678C43.4504 52.3872 43.0323 52.8054 43.0323 53.3227C43.0323 53.84 43.4504 54.2582 43.9678 54.2582H49.5807C50.098 54.2582 50.5162 53.84 50.5162 53.3227C50.5162 52.8054 50.098 52.3872 49.5807 52.3872Z" fill="white"/>
<path d="M40.2258 24.3226C40.7424 24.3226 41.1613 23.9038 41.1613 23.3871C41.1613 22.8705 40.7424 22.4517 40.2258 22.4517C39.7091 22.4517 39.2903 22.8705 39.2903 23.3871C39.2903 23.9038 39.7091 24.3226 40.2258 24.3226Z" fill="white"/>
<path d="M43.9678 24.3226C44.4844 24.3226 44.9033 23.9038 44.9033 23.3871C44.9033 22.8705 44.4844 22.4517 43.9678 22.4517C43.4511 22.4517 43.0323 22.8705 43.0323 23.3871C43.0323 23.9038 43.4511 24.3226 43.9678 24.3226Z" fill="white"/>
<path d="M43.0322 45.2905L54.9194 33.4033L53.5967 32.0806L43.0322 42.645L40.8872 40.4999L39.5644 41.8227L43.0322 45.2905Z" fill="white"/>
<path d="M12.1613 14.9677H2.80645C1.25916 14.9677 0 16.2269 0 17.7742C0 19.3215 1.25916 20.5806 2.80645 20.5806H10.2903C10.8067 20.5806 11.2258 20.9997 11.2258 21.5161C11.2258 22.0325 10.8067 22.4516 10.2903 22.4516H6.54839C5.0011 22.4516 3.74194 23.7108 3.74194 25.2581C3.74194 26.8054 5.0011 28.0645 6.54839 28.0645H16.8387V26.1935H6.54839C6.032 26.1935 5.6129 25.7745 5.6129 25.2581C5.6129 24.7417 6.032 24.3226 6.54839 24.3226H10.2903C11.8376 24.3226 13.0968 23.0634 13.0968 21.5161C13.0968 19.9688 11.8376 18.7097 10.2903 18.7097H2.80645C2.29006 18.7097 1.87097 18.2906 1.87097 17.7742C1.87097 17.2578 2.29006 16.8387 2.80645 16.8387H12.1613C13.7086 16.8387 14.9677 15.5795 14.9677 14.0323C14.9677 12.485 13.7086 11.2258 12.1613 11.2258H6.54839C6.032 11.2258 5.6129 10.8067 5.6129 10.2903C5.6129 9.77394 6.032 9.35484 6.54839 9.35484H12.1613C13.7086 9.35484 14.9677 8.09568 14.9677 6.54839C14.9677 5.0011 13.7086 3.74194 12.1613 3.74194H2.80645C2.29006 3.74194 1.87097 3.32284 1.87097 2.80645C1.87097 2.29006 2.29006 1.87097 2.80645 1.87097H19.6452V0H2.80645C1.25916 0 0 1.25916 0 2.80645C0 4.35374 1.25916 5.6129 2.80645 5.6129H12.1613C12.6777 5.6129 13.0968 6.032 13.0968 6.54839C13.0968 7.06477 12.6777 7.48387 12.1613 7.48387H6.54839C5.0011 7.48387 3.74194 8.74303 3.74194 10.2903C3.74194 11.8376 5.0011 13.0968 6.54839 13.0968H12.1613C12.6777 13.0968 13.0968 13.5159 13.0968 14.0323C13.0968 14.5486 12.6777 14.9677 12.1613 14.9677Z" fill="white"/>
<path d="M32.3238 47.3897L22.4516 42.4541V45.8387H8.41937V47.7096H24.3226V45.4813L31.4856 49.0633C31.6839 49.1625 31.8065 49.3608 31.8065 49.5806C31.8065 49.8005 31.6839 49.9988 31.4865 50.0979L24.3226 53.6799V51.4516H6.5484V53.3226H22.4516V56.7071L32.3247 51.7715C33.1582 51.3534 33.6774 50.5133 33.6774 49.5806C33.6774 48.6479 33.1582 47.8079 32.3238 47.3897Z" fill="white"/>
<path d="M1.87097 38.3549V40.2259H14.9677V43.6105L24.8408 38.6748C25.6744 38.2567 26.1935 37.4166 26.1935 36.4839C26.1935 35.5513 25.6744 34.7112 24.8399 34.293L14.9677 29.3574V32.742H0V34.613H16.8387V32.3846L24.0017 35.9666C24.2 36.0658 24.3226 36.2641 24.3226 36.4839C24.3226 36.7038 24.2 36.9021 24.0026 37.0013L16.8387 40.5832V38.3549H1.87097Z" fill="white"/>
</svg>
