<svg width="24" height="24" viewBox="0 0 24 24" fill="none" xmlns="http://www.w3.org/2000/svg">
<g clip-path="url(#clip0_288_108)">
<path d="M23.2062 22.6011C23.3833 22.6011 23.5532 22.6715 23.6784 22.7968C23.8036 22.922 23.874 23.0919 23.874 23.269C23.874 23.4461 23.8036 23.616 23.6784 23.7412C23.5532 23.8665 23.3833 23.9368 23.2062 23.9368L0.667842 23.9395C0.490719 23.9395 0.320851 23.8691 0.195606 23.7439C0.0703618 23.6187 0 23.4488 0 23.2717C0 23.0945 0.0703618 22.9247 0.195606 22.7994C0.320851 22.6742 0.490719 22.6038 0.667842 22.6038L23.2062 22.6011ZM23.2062 11.332C23.3833 11.332 23.5532 11.4024 23.6784 11.5276C23.8036 11.6528 23.874 11.8227 23.874 11.9998C23.874 12.177 23.8036 12.3468 23.6784 12.4721C23.5532 12.5973 23.3833 12.6677 23.2062 12.6677L9.84933 12.669C9.6722 12.669 9.50234 12.5986 9.37709 12.4734C9.25185 12.3482 9.18149 12.1783 9.18149 12.0012C9.18149 11.824 9.25185 11.6542 9.37709 11.5289C9.50234 11.4037 9.6722 11.3333 9.84933 11.3333L23.2062 11.332ZM23.2062 0.0614967C23.3833 0.0614967 23.5532 0.131858 23.6784 0.257103C23.8036 0.382347 23.874 0.552216 23.874 0.729338C23.874 0.906461 23.8036 1.07633 23.6784 1.20157C23.5532 1.32682 23.3833 1.39718 23.2062 1.39718L0.667842 1.39852C0.490719 1.39852 0.320851 1.32815 0.195606 1.20291C0.0703618 1.07766 0 0.907797 0 0.730674C0 0.553551 0.0703618 0.383683 0.195606 0.258439C0.320851 0.133194 0.490719 0.0628323 0.667842 0.0628323L23.2062 0.0614967Z" fill="white"/>
</g>
<defs>
<clipPath id="clip0_288_108">
<rect width="24" height="24" fill="white"/>
</clipPath>
</defs>
</svg>
