<svg width="146" height="145" viewBox="0 0 146 145" fill="none" xmlns="http://www.w3.org/2000/svg">
<g clip-path="url(#clip0_271_2)">
<path d="M108.973 17.8281C103.011 17.9266 97.3051 20.2704 92.9956 24.3909C88.6047 28.563 86.1337 34.0101 86.0363 39.7264C85.9424 45.5756 88.2381 51.2105 92.3919 55.3299C95.0152 57.9303 96.5319 61.4437 96.6258 65.1359H96.6144C95.3187 65.1359 94.3748 66.3089 94.3748 67.6045V78.2593C94.3748 79.5549 95.3187 80.6787 96.6144 80.6787H122.109C123.443 80.6546 124.527 79.5927 124.581 78.2593V67.6045C124.531 66.2608 123.452 65.1828 122.109 65.1359H121.829C121.842 61.6167 123.311 58.2408 126.155 55.4159C126.162 55.4078 126.17 55.4308 126.176 55.4227C130.319 51.1922 132.598 45.7566 132.598 40.0895C132.588 34.2438 130.215 28.6512 126.018 24.5811C121.481 20.1226 115.333 17.6872 108.973 17.8281ZM119.889 75.9865H99.067V69.828H119.889V75.9865ZM122.834 52.0995C119.129 55.7893 117.162 60.4437 117.141 65.1359H101.325C101.214 60.1974 99.1987 55.4915 95.7014 52.0021C92.4514 48.7728 90.6552 44.359 90.7297 39.778C90.8855 30.5551 99.2732 22.6531 109.044 22.5042C114.149 22.3885 119.084 24.3428 122.727 27.9226C126.025 31.105 127.894 35.4867 127.909 40.0701C127.907 44.4988 126.105 48.7522 122.834 52.0995Z" fill="black"/>
<path d="M106.399 2.34609V10.5872C106.399 11.8828 107.448 12.9333 108.745 12.9333C110.04 12.9333 111.091 11.8828 111.091 10.5872V2.34609C111.091 1.05047 110.04 0 108.745 0C107.448 0 106.399 1.05047 106.399 2.34609Z" fill="black"/>
<path d="M134.971 11.9526L128.598 17.6712C127.634 18.5361 127.553 20.0196 128.418 20.9841C129.283 21.9487 130.767 22.0289 131.731 21.164L138.105 15.4454C139.07 14.5793 139.15 13.0959 138.285 12.1313C137.42 11.1668 135.937 11.0866 134.972 11.9526H134.971Z" fill="black"/>
<path d="M88.2931 21.007C89.2496 21.007 90.1111 20.4251 90.4696 19.5384C90.8271 18.6506 90.6106 17.6345 89.9209 16.9713L83.8129 11.0843C83.2126 10.4886 82.3374 10.2618 81.5229 10.492C80.7084 10.7223 80.0807 11.373 79.8813 12.1966C79.6809 13.0191 79.9397 13.8851 80.5583 14.4636L86.6664 20.3495C87.1029 20.771 87.686 21.007 88.2931 21.007Z" fill="black"/>
<path d="M110.493 83.0878C109.577 82.1725 108.092 82.1725 107.175 83.0878L100.206 90.0574C99.2892 90.9738 99.2892 92.4596 100.206 93.376C100.638 93.8148 101.228 94.0622 101.843 94.0622C102.458 94.0622 103.048 93.8148 103.479 93.376L106.399 90.4113V109.164C106.411 111.344 105.547 113.437 104.002 114.973C102.457 116.51 100.358 117.362 98.1792 117.336H89.6552C88.3596 117.336 87.3091 118.387 87.3091 119.682C87.3091 120.978 88.3596 122.029 89.6552 122.029H98.1792C101.602 122.053 104.893 120.707 107.318 118.289C109.744 115.873 111.101 112.588 111.091 109.164V90.4113L114.1 93.3772C114.549 93.8182 115.153 94.0645 115.783 94.0622C116.733 94.0668 117.593 93.4975 117.959 92.62C118.326 91.7436 118.129 90.7321 117.458 90.0574L110.493 83.0878Z" fill="black"/>
<path d="M43.368 72.2957C23.3094 72.2957 7.04834 88.5567 7.04834 108.615C7.04834 128.674 23.3094 144.935 43.368 144.935C63.4266 144.935 79.6877 128.675 79.6877 108.615C79.6659 88.5659 63.4174 72.3186 43.368 72.2957ZM43.368 140.244C25.9007 140.244 11.7405 126.084 11.7405 108.616C11.7405 91.1491 25.9007 76.989 43.368 76.989C60.8354 76.989 74.9955 91.1491 74.9955 108.615C74.9761 126.075 60.8274 140.223 43.368 140.243V140.244Z" fill="black"/>
<path d="M51.4625 95.3739C52.2449 95.6786 53.1316 95.5411 53.7845 95.013C54.4386 94.4861 54.7617 93.6498 54.6299 92.8204C54.4982 91.9899 53.9334 91.2946 53.1487 90.9944C48.2286 89.1008 42.7403 89.3494 38.0103 91.6783C33.2803 94.0072 29.7383 98.2057 28.2387 103.26H24.872C23.5752 103.26 22.5259 104.31 22.5259 105.606C22.5259 106.902 23.5752 107.952 24.872 107.952H27.4861C27.4781 108.173 27.4701 108.392 27.4701 108.615C27.4701 109.276 27.5056 109.935 27.5732 110.591H24.872C23.5752 110.591 22.5259 111.642 22.5259 112.937C22.5259 114.233 23.5752 115.284 24.872 115.284H28.6809C30.4611 119.989 34.0444 123.792 38.6369 125.848C43.2294 127.903 48.452 128.044 53.1476 126.237C54.3573 125.771 54.9599 124.414 54.4948 123.204C54.0285 121.995 52.671 121.393 51.4613 121.858C44.7645 124.43 37.2004 121.61 33.8187 115.284H47.7463C49.0419 115.284 50.0924 114.233 50.0924 112.937C50.0924 111.642 49.0419 110.591 47.7463 110.591H32.3009C32.2092 109.937 32.1622 109.276 32.1622 108.615C32.1622 108.393 32.168 108.172 32.1783 107.952H49.2126C50.5082 107.952 51.5587 106.902 51.5587 105.606C51.5587 104.31 50.5082 103.26 49.2126 103.26H33.2047C36.1327 96.1024 44.2444 92.5982 51.4625 95.3739Z" fill="black"/>
</g>
<defs>
<clipPath id="clip0_271_2">
<rect width="144.935" height="144.935" fill="white" transform="translate(0.532288)"/>
</clipPath>
</defs>
</svg>
