<svg width="178" height="143" viewBox="0 0 178 143" fill="none" xmlns="http://www.w3.org/2000/svg">
<path fill-rule="evenodd" clip-rule="evenodd" d="M90.3531 55.1526H37.1423C36.2238 55.1526 35.4785 54.4073 35.4785 53.4888V40.3182C35.4785 39.4 36.2238 38.6548 37.1423 38.6548L90.3544 38.6551C91.2726 38.6551 92.0182 39.4004 92.0182 40.3189V53.4895C92.0169 54.409 91.2727 55.1526 90.3531 55.1526ZM38.8057 51.8254H88.691V41.981H38.8057V51.8254Z" fill="black"/>
<path fill-rule="evenodd" clip-rule="evenodd" d="M113.499 135.366H36.0115C31.6861 135.366 28.1656 131.846 28.1656 127.52V14.4829C28.1656 10.1576 31.6848 6.63745 36.0115 6.63745H113.499C117.824 6.63745 121.345 10.1563 121.345 14.4829V37.6968C121.345 38.615 120.598 39.3602 119.681 39.3602H106.153C103.714 39.3602 101.729 41.3453 101.729 43.7842V56.7802C101.729 57.3626 101.424 57.9031 100.926 58.2035L82.654 69.2517C82.1063 69.5832 81.7911 70.1214 81.7911 70.7314C81.7911 71.2964 82.0696 71.7898 82.556 72.0833L100.928 83.2101C101.426 83.5118 101.73 84.051 101.73 84.6321V98.2172C101.73 100.656 103.714 102.64 106.153 102.64H119.68C120.598 102.64 121.343 103.386 121.343 104.303V127.518C121.344 131.846 117.824 135.366 113.499 135.366ZM36.0115 9.96453C33.5209 9.96453 31.4932 11.9909 31.4932 14.4828V127.52C31.4932 130.011 33.5196 132.037 36.0115 132.037H113.499C115.99 132.037 118.016 130.011 118.016 127.52V105.97H106.153C101.88 105.97 98.4023 102.493 98.4023 98.2191V85.5709L80.8327 74.9295C79.3494 74.0316 78.4643 72.4616 78.4643 70.731C78.4643 68.9565 79.3874 67.3392 80.9323 66.4043L98.4027 55.8412L98.4024 43.7837C98.4024 39.5102 101.88 36.0326 106.153 36.0326H118.016V14.4825C118.016 11.9919 115.99 9.96423 113.499 9.96423L36.0115 9.96453Z" fill="black"/>
<path fill-rule="evenodd" clip-rule="evenodd" d="M119.68 113.694H29.8291C28.9109 113.694 28.1653 112.947 28.1653 112.03C28.1653 111.112 28.9109 110.366 29.8291 110.366H119.68C120.598 110.366 121.343 111.112 121.343 112.03C121.343 112.947 120.598 113.694 119.68 113.694ZM119.68 31.6373H29.8291C28.9109 31.6373 28.1653 30.892 28.1653 29.9738C28.1653 29.0553 28.9109 28.3101 29.8291 28.3101H119.68C120.598 28.3101 121.343 29.0553 121.343 29.9738C121.343 30.892 120.598 31.6373 119.68 31.6373Z" fill="black"/>
<path fill-rule="evenodd" clip-rule="evenodd" d="M93.2185 31.6367H56.2916C55.373 31.6367 54.6278 30.8915 54.6278 29.9733V17.7156C54.6278 16.7971 55.373 16.0518 56.2916 16.0518L93.2172 16.0515C94.1354 16.0515 94.8809 16.7968 94.8809 17.715V29.9726C94.8822 30.8928 94.1367 31.6367 93.2185 31.6367ZM57.955 28.3095H91.5547V19.379L57.955 19.3787V28.3095Z" fill="black"/>
<path fill-rule="evenodd" clip-rule="evenodd" d="M84.6821 128.413H64.8266C61.9488 128.413 59.6069 125.924 59.6069 122.864C59.6069 119.805 61.9488 117.316 64.8266 117.316H84.6821C87.5608 117.316 89.903 119.804 89.903 122.864C89.9027 125.924 87.5608 128.413 84.6821 128.413ZM64.8266 120.645C63.7836 120.645 62.9341 121.64 62.9341 122.865C62.9341 124.09 63.7836 125.085 64.8266 125.085H84.6821C85.7251 125.085 86.5758 124.089 86.5758 122.865C86.5758 121.641 85.7264 120.645 84.6821 120.645H64.8266Z" fill="black"/>
<path fill-rule="evenodd" clip-rule="evenodd" d="M162.377 105.97H106.153C101.879 105.97 98.4023 102.492 98.4023 98.2187V85.5706L80.8326 74.9292C79.3494 74.0313 78.4629 72.4602 78.4642 70.7293C78.4655 68.9548 79.3887 67.3375 80.9332 66.4039L98.4036 55.8395V43.7833C98.4036 39.5097 101.881 36.0334 106.154 36.0334H162.378C166.652 36.0334 170.131 39.5097 170.131 43.7833V98.2176C170.129 102.492 166.652 105.97 162.377 105.97ZM106.153 39.3608C103.714 39.3608 101.729 41.3459 101.729 43.7847V56.7794C101.729 57.3619 101.424 57.9011 100.926 58.2028L82.6539 69.2523C82.1049 69.5838 81.7911 70.122 81.7911 70.732C81.7911 71.297 82.0695 71.7904 82.556 72.0839L100.928 83.2107C101.425 83.5124 101.729 84.0516 101.729 84.6327V98.2177C101.729 100.657 103.714 102.64 106.153 102.64H162.377C164.816 102.64 166.801 100.657 166.801 98.2177V43.7834C166.801 41.3446 164.816 39.3595 162.377 39.3595L106.153 39.3608Z" fill="black"/>
<path fill-rule="evenodd" clip-rule="evenodd" d="M144.518 96.4528C140.762 96.4528 136.999 94.9246 132.316 91.4955C126.724 87.4002 117.902 78.5782 113.807 72.9864C107.483 64.3517 107.257 58.0518 112.97 49.7418C114.882 46.96 117.031 45.5481 119.352 45.5481C120.964 45.5481 122.59 46.2642 124.057 47.6197C124.733 48.2437 125.782 49.3886 126.708 50.3979C127.112 50.8382 127.49 51.2509 127.79 51.5683C132.112 56.1479 129.405 59.006 126.787 61.7717C126.168 62.4259 125.527 63.1027 124.872 63.8777C124.315 64.5362 124.475 65.9493 125.313 67.7563C128.018 73.5872 136.299 80.7536 140.331 80.7536C140.807 80.7536 141.164 80.6462 141.422 80.4277C142.197 79.7729 142.873 79.1315 143.527 78.5123C145.381 76.7572 146.98 75.2418 149.147 75.2418C150.635 75.2418 152.091 75.9625 153.73 77.5096C154.046 77.8087 154.456 78.1844 154.896 78.5864C155.908 79.5144 157.055 80.5646 157.68 81.2427C159.216 82.9061 159.92 84.7474 159.718 86.5649C159.484 88.6548 158.084 90.5934 155.557 92.3299C151.471 95.1425 147.962 96.4528 144.518 96.4528ZM119.354 48.8773C117.908 48.8773 116.577 50.373 115.714 51.628C110.793 58.7839 110.983 63.4968 116.494 71.0223C120.359 76.3012 129.003 84.9463 134.282 88.8108C138.358 91.7947 141.516 93.1256 144.518 93.1256C147.256 93.1256 150.167 92.0017 153.676 89.5891C155.347 88.4409 156.294 87.2659 156.413 86.195C156.508 85.3528 156.111 84.4458 155.237 83.4988C154.707 82.9232 153.567 81.8802 152.651 81.0393C152.198 80.6256 151.775 80.2384 151.449 79.9288C150.494 79.0276 149.719 78.569 149.15 78.569C148.308 78.569 147.209 79.6101 145.818 80.9282C145.163 81.5487 144.419 82.252 143.574 82.9697C142.701 83.7081 141.61 84.0822 140.333 84.0822C134.451 84.0822 125.347 75.7361 122.297 69.158C120.469 65.215 121.308 62.9422 122.333 61.7292C123.049 60.8834 123.753 60.1408 124.374 59.4843C127.054 56.6547 127.537 56.1443 125.374 53.8533C125.063 53.5253 124.675 53.1015 124.258 52.6461C123.419 51.7322 122.378 50.5942 121.804 50.0648C121.217 49.523 120.314 48.8773 119.354 48.8773Z" fill="black"/>
<path fill-rule="evenodd" clip-rule="evenodd" d="M154.683 92.5805C154.258 92.5805 153.832 92.4177 153.506 92.0927L142.887 81.4743C142.237 80.8237 142.237 79.7702 142.887 79.1207C143.538 78.4714 144.592 78.4701 145.241 79.1207L155.859 89.7391C156.51 90.39 156.51 91.4435 155.859 92.0927C155.536 92.4177 155.108 92.5805 154.683 92.5805ZM125.008 62.9042C124.582 62.9042 124.156 62.7411 123.831 62.4165L113.212 51.798C112.562 51.1484 112.562 50.095 113.212 49.4457C113.863 48.7951 114.916 48.7951 115.565 49.4457L126.184 60.0641C126.835 60.7134 126.835 61.7669 126.184 62.4165C125.859 62.7411 125.433 62.9042 125.008 62.9042Z" fill="black"/>
<path fill-rule="evenodd" clip-rule="evenodd" d="M123.103 82.7129C122.678 82.7129 122.252 82.5501 121.926 82.2251C121.275 81.5746 121.275 80.5207 121.926 79.8715L127.603 74.1942C128.254 73.5437 129.308 73.5437 129.957 74.1942C130.606 74.8448 130.608 75.8986 129.957 76.5479L124.28 82.2251C123.956 82.5501 123.529 82.7129 123.103 82.7129Z" fill="black"/>
<path fill-rule="evenodd" clip-rule="evenodd" d="M138.986 69.9607C138.561 69.9607 138.135 69.7975 137.809 69.4729C137.158 68.8236 137.158 67.7698 137.809 67.1205L156.222 48.7084C156.872 48.0578 157.926 48.0578 158.575 48.7084C159.225 49.3576 159.225 50.4111 158.575 51.0607L140.163 69.4729C139.839 69.7975 139.413 69.9607 138.986 69.9607Z" fill="black"/>
<path fill-rule="evenodd" clip-rule="evenodd" d="M146.071 69.9603H138.987C138.069 69.9603 137.324 69.2148 137.324 68.2966V61.2124C137.324 60.2942 138.07 59.5486 138.987 59.5486C139.905 59.5486 140.651 60.2942 140.651 61.2124V66.6328H146.071C146.989 66.6328 147.734 67.3784 147.734 68.2966C147.734 69.2148 146.99 69.9603 146.071 69.9603Z" fill="black"/>
<path fill-rule="evenodd" clip-rule="evenodd" d="M69.1254 63.7217H52.9745C52.0563 63.7217 51.311 62.9765 51.311 62.0583C51.311 61.1401 52.0563 60.3945 52.9745 60.3945H69.1254C70.0436 60.3945 70.7892 61.1401 70.7892 62.0583C70.7892 62.9765 70.0449 63.7217 69.1254 63.7217ZM45.1506 63.7217H38.2616C37.3434 63.7217 36.5981 62.9765 36.5981 62.0583C36.5981 61.1401 37.3434 60.3945 38.2616 60.3945H45.1506C46.0691 60.3945 46.8143 61.1401 46.8143 62.0583C46.8143 62.9765 46.0691 63.7217 45.1506 63.7217Z" fill="black"/>
<path fill-rule="evenodd" clip-rule="evenodd" d="M69.1254 73.2227H62.2364C61.3182 73.2227 60.5726 72.4775 60.5726 71.5593C60.5726 70.6411 61.3182 69.8955 62.2364 69.8955H69.1254C70.0436 69.8955 70.7891 70.6411 70.7891 71.5593C70.7891 72.4775 70.0449 73.2227 69.1254 73.2227ZM54.4128 73.2227H38.2616C37.3434 73.2227 36.5981 72.4775 36.5981 71.5593C36.5981 70.6411 37.3434 69.8955 38.2616 69.8955H54.4128C55.331 69.8955 56.0766 70.6411 56.0766 71.5593C56.0766 72.4775 55.3323 73.2227 54.4128 73.2227Z" fill="black"/>
<path fill-rule="evenodd" clip-rule="evenodd" d="M78.9212 82.7232H55.0631C54.1449 82.7232 53.3993 81.977 53.3993 81.0594C53.3993 80.1422 54.1448 79.396 55.0631 79.396H78.9212C79.8394 79.396 80.5847 80.1422 80.5847 81.0594C80.5847 81.977 79.8407 82.7232 78.9212 82.7232ZM47.9556 82.7232H38.2602C37.342 82.7232 36.5968 81.977 36.5968 81.0594C36.5968 80.1422 37.342 79.396 38.2602 79.396H47.9556C48.8741 79.396 49.6194 80.1422 49.6194 81.0594C49.6194 81.977 48.8745 82.7232 47.9556 82.7232Z" fill="black"/>
<path fill-rule="evenodd" clip-rule="evenodd" d="M84.4665 92.2242H71.9998C71.0816 92.2242 70.3361 91.478 70.3361 90.5604C70.3361 89.6432 71.0816 88.897 71.9998 88.897H84.4678C85.3863 88.897 86.1315 89.6432 86.1315 90.5604C86.1315 91.478 85.3863 92.2242 84.4665 92.2242ZM64.8924 92.2242H38.2616C37.3434 92.2242 36.5981 91.478 36.5981 90.5604C36.5981 89.6432 37.3434 88.897 38.2616 88.897H64.8924C65.8109 88.897 66.5562 89.6432 66.5562 90.5604C66.5562 91.478 65.8122 92.2242 64.8924 92.2242Z" fill="black"/>
<path fill-rule="evenodd" clip-rule="evenodd" d="M78.9212 101.725H55.0631C54.1449 101.725 53.3993 100.979 53.3993 100.062C53.3993 99.1444 54.1448 98.3982 55.0631 98.3982H78.9212C79.8394 98.3982 80.5847 99.1444 80.5847 100.062C80.5847 100.979 79.8407 101.725 78.9212 101.725ZM47.9556 101.725H38.2602C37.342 101.725 36.5968 100.979 36.5968 100.062C36.5968 99.1444 37.342 98.3982 38.2602 98.3982H47.9556C48.8741 98.3982 49.6194 99.1444 49.6194 100.062C49.6194 100.979 48.8745 101.725 47.9556 101.725Z" fill="black"/>
</svg>
