<svg width="142" height="141" viewBox="0 0 142 141" fill="none" xmlns="http://www.w3.org/2000/svg">
<g clip-path="url(#clip0_271_11)">
<path d="M68.6507 70.4805C64.7649 70.4805 61.6026 73.6427 61.6026 77.5285C61.6026 81.4143 64.7649 84.5765 68.6507 84.5765C72.5365 84.5765 75.6987 81.4143 75.6987 77.5285C75.6987 73.6427 72.5365 70.4805 68.6507 70.4805ZM68.6507 79.8778C67.3538 79.8778 66.3013 78.823 66.3013 77.5285C66.3013 76.234 67.3538 75.1792 68.6507 75.1792C69.9475 75.1792 71 76.234 71 77.5285C71 78.823 69.9475 79.8778 68.6507 79.8778Z" fill="black"/>
<path d="M115.638 0C101.389 0 89.7947 11.594 89.7947 25.8428C89.7947 30.5509 91.0563 35.1086 93.4573 39.1095L87.6944 50.6354C87.2433 51.5399 87.4195 52.6324 88.1361 53.3466C88.5848 53.7977 89.1862 54.0349 89.7947 54.0349C90.1518 54.0349 90.5113 53.9527 90.8449 53.7883L102.371 48.0253C106.374 50.424 110.932 51.6856 115.638 51.6856C129.886 51.6856 141.48 40.0916 141.48 25.8428C141.48 11.594 129.886 0 115.638 0ZM115.638 46.9869C111.404 46.9869 107.318 45.7394 103.825 43.3807C103.43 43.1128 102.972 42.9789 102.509 42.9789C102.152 42.9789 101.79 43.0611 101.459 43.2256L95.0479 46.4325L98.2524 40.0211C98.6306 39.2623 98.5719 38.3578 98.0997 37.6553C95.7386 34.1642 94.4934 30.0787 94.4934 25.8428C94.4934 14.1853 103.978 4.69869 115.638 4.69869C127.297 4.69869 136.782 14.1853 136.782 25.8428C136.782 37.5002 127.297 46.9869 115.638 46.9869Z" fill="black"/>
<path d="M38.1092 93.974V89.2753C38.1092 84.0926 42.3239 79.8779 47.5065 79.8779V75.1792C39.7325 75.1792 33.4105 81.5013 33.4105 89.2753V96.3233C33.4105 97.6201 34.4606 98.6726 35.7598 98.6726H54.5546V93.974H38.1092Z" fill="black"/>
<path d="M89.7947 75.1792V79.8779C92.3861 79.8779 94.4934 81.9853 94.4934 84.5766V93.974H80.3974V98.6726H96.8428C98.142 98.6726 99.1921 97.6201 99.1921 96.3233V84.5766C99.1921 79.3939 94.9774 75.1792 89.7947 75.1792Z" fill="black"/>
<path d="M132.083 93.9738H127.384H108.59V86.9258C108.59 73.9715 98.0504 63.4323 85.0961 63.4323H77.0778C75.25 62.3352 73.1966 61.5881 71 61.2709V56.0507C75.0432 55.0005 78.048 51.352 78.048 46.9869C78.048 45.7464 77.7849 44.5389 77.3127 43.4112C79.1734 42.1426 80.3974 40.007 80.3974 37.5895V25.8428C80.3974 25.0393 79.9862 24.2922 79.3096 23.8599L53.4668 7.41453C53.0886 7.1749 52.6516 7.04803 52.2052 7.04803H21.6638V2.34934C21.6638 1.05251 20.6136 0 19.3144 0H2.869C1.56981 0 0.519653 1.05251 0.519653 2.34934V54.0349C0.519653 55.3318 1.56981 56.3843 2.869 56.3843H19.3144C20.6136 56.3843 21.6638 55.3318 21.6638 54.0349V49.3362H59.5869C60.442 52.623 63.0146 55.1955 66.3013 56.0507V61.2709C64.1047 61.5881 62.0513 62.3352 60.2236 63.4323H47.5066C34.5523 63.4323 24.0131 73.9715 24.0131 86.9258V93.9738H9.91703C4.73438 93.9738 0.519653 98.1885 0.519653 103.371V129.214C0.519653 130.511 1.56981 131.563 2.869 131.563H16.225C18.8704 137.11 24.5182 140.961 31.0611 140.961C37.6041 140.961 43.2495 137.11 45.8973 131.563H86.7054C89.3507 137.11 94.9986 140.961 101.541 140.961C108.084 140.961 113.73 137.11 116.378 131.563H139.131C140.43 131.563 141.48 130.511 141.48 129.214V112.769V103.371C141.48 98.1885 137.266 93.9738 132.083 93.9738ZM16.9651 9.39738V46.9869V51.6856H5.21834V4.69869H16.9651V9.39738ZM61.6026 44.6376H21.6638V11.7467H51.5216L75.6987 27.1326V37.5895C75.6987 38.884 74.6462 39.9389 73.3493 39.9389C73.0651 39.9389 72.8019 39.8684 72.5506 39.7768C72.4801 39.7509 72.412 39.7251 72.3438 39.6922C72.1324 39.5912 71.9397 39.4619 71.7682 39.3045C71.6907 39.2317 71.6296 39.1448 71.5615 39.0626C71.2279 38.6561 71 38.1557 71 37.5895V32.8908C71 31.7303 70.1542 30.7459 69.0078 30.5697L43.4633 26.6392C41.5228 26.3385 39.5728 26.9023 38.0927 28.1733C36.6103 29.4467 35.7598 31.2956 35.7598 33.2503C35.7598 36.9388 38.7599 39.9389 42.4484 39.9389H61.6026C62.8995 39.9389 63.952 40.9937 63.952 42.2882C63.952 43.5827 62.8995 44.6376 61.6026 44.6376ZM66.3013 34.9066V37.0398C65.0538 35.9215 63.4069 35.2402 61.6026 35.2402H42.4484C41.3513 35.2402 40.4585 34.3474 40.4585 33.2503C40.4585 32.4538 40.8955 31.9628 41.1539 31.7397C41.3771 31.547 41.8164 31.258 42.4367 31.258C42.5377 31.258 42.6434 31.2651 42.7515 31.2815L66.3013 34.9066ZM64.3138 48.7935C64.6591 48.6502 64.9857 48.4717 65.2981 48.2767C65.3827 48.225 65.4626 48.1639 65.5448 48.1075C65.7915 47.9384 66.0288 47.7575 66.252 47.5601C66.3366 47.4873 66.4188 47.4145 66.4987 47.337C66.7547 47.0879 66.9967 46.8248 67.2129 46.5382C67.2317 46.5147 67.2528 46.4935 67.2716 46.4677C67.5042 46.1529 67.7039 45.8169 67.8824 45.4645C67.9271 45.3752 67.9646 45.2813 68.0069 45.1897C68.1338 44.9124 68.2419 44.6258 68.3311 44.3298C68.3617 44.2264 68.3946 44.1254 68.4228 44.022C68.5214 43.632 68.599 43.235 68.6319 42.8215C68.7305 42.9108 68.8503 42.9789 68.9537 43.0635C69.1581 43.2303 69.3625 43.3947 69.5833 43.5381C69.6914 43.6062 69.8089 43.6579 69.9217 43.7213C70.1636 43.8576 70.408 43.9891 70.6664 44.0949C70.798 44.1489 70.9342 44.1888 71.0681 44.2358C71.3172 44.3227 71.5709 44.3979 71.8317 44.4567C71.9844 44.4895 72.1394 44.5154 72.2945 44.5389C72.4261 44.5577 72.5529 44.5953 72.6845 44.607C73.1144 45.3283 73.3493 46.1482 73.3493 46.9869C73.3493 49.5782 71.242 51.6856 68.6507 51.6856C66.7007 51.6856 65.0233 50.4898 64.3138 48.7935ZM57.1177 75.4116C57.1436 75.2707 57.1671 75.1274 57.1976 74.9887C57.3456 74.3262 57.5406 73.6849 57.7943 73.0693C57.8366 72.966 57.8883 72.8673 57.9353 72.7663C58.1914 72.1907 58.4897 71.6362 58.8327 71.1147C58.875 71.0489 58.9126 70.9784 58.9573 70.915C59.3379 70.3582 59.7725 69.8437 60.24 69.3597C60.3316 69.2657 60.428 69.1741 60.5243 69.0825C60.9824 68.6408 61.4711 68.232 61.995 67.8702C62.0373 67.842 62.0748 67.8068 62.1171 67.7763C63.9872 66.517 66.2332 65.7817 68.6507 65.7817C71.0681 65.7817 73.3141 66.517 75.1842 67.7739C75.2265 67.8021 75.2641 67.8373 75.3064 67.8679C75.8303 68.2297 76.3189 68.6408 76.777 69.0825C76.8734 69.1741 76.9697 69.2634 77.0613 69.3574C77.5288 69.839 77.9635 70.3558 78.3441 70.9126C78.3887 70.9784 78.4239 71.0465 78.4686 71.1123C78.8116 71.6339 79.1099 72.1883 79.366 72.7639C79.4107 72.8649 79.4647 72.9636 79.507 73.067C79.7607 73.6825 79.9581 74.3262 80.1037 74.9864C80.1343 75.125 80.1578 75.2683 80.1836 75.4093C80.3105 76.1 80.3974 76.8024 80.3974 77.5284C80.3974 82.7439 76.8922 87.3839 71.874 88.8146C71.0282 89.0566 70.3868 89.7497 70.2153 90.6142L68.6976 98.212C68.5943 98.7242 68.6647 99.2575 68.8973 99.7226L70.7228 103.371L68.8997 107.02C68.5684 107.682 68.5684 108.46 68.8997 109.122L70.3727 112.066L66.3013 115.118V90.8045C66.3013 89.8084 65.674 88.9227 64.7366 88.5891C60.0521 86.9305 56.9039 82.4855 56.9039 77.5284C56.9039 76.8048 56.9909 76.1 57.1177 75.4116ZM42.5917 126.656C42.5283 126.987 42.4249 127.313 42.3333 127.64C40.9542 132.595 36.4482 136.262 31.0611 136.262C25.6741 136.262 21.168 132.595 19.789 127.64C19.6974 127.311 19.5916 126.984 19.5306 126.656C19.4013 125.958 19.3144 125.248 19.3144 124.515C19.3144 118.038 24.584 112.769 31.0611 112.769C37.5383 112.769 42.8079 118.038 42.8079 124.515C42.8079 125.248 42.7209 125.958 42.5917 126.656ZM113.072 126.656C113.009 126.987 112.905 127.313 112.814 127.64C111.435 132.595 106.929 136.262 101.541 136.262C96.1544 136.262 91.6484 132.595 90.2693 127.64C90.1777 127.311 90.072 126.984 90.0109 126.656C89.8817 125.958 89.7948 125.248 89.7948 124.515C89.7948 118.038 95.0643 112.769 101.541 112.769C108.019 112.769 113.288 118.038 113.288 124.515C113.288 125.248 113.201 125.958 113.072 126.656ZM136.782 126.865H117.815C117.825 126.799 117.82 126.735 117.829 126.67C117.921 125.962 117.987 125.248 117.987 124.515C117.987 115.447 110.608 108.07 101.541 108.07C92.4754 108.07 85.0961 115.447 85.0961 124.515C85.0961 125.246 85.1619 125.962 85.2535 126.67C85.2629 126.735 85.2582 126.801 85.2676 126.865H47.3351C47.3444 126.799 47.3398 126.735 47.3491 126.67C47.4408 125.962 47.5066 125.248 47.5066 124.515C47.5066 115.447 40.1273 108.07 31.0611 108.07C21.995 108.07 14.6157 115.447 14.6157 124.515C14.6157 125.246 14.6815 125.962 14.7731 126.67C14.7825 126.733 14.7778 126.799 14.7872 126.865H5.21834V103.371C5.21834 100.78 7.32571 98.6725 9.91703 98.6725H26.3624C27.6616 98.6725 28.7118 97.62 28.7118 96.3231V86.9258C28.7118 76.5628 37.1436 68.131 47.5066 68.131H55.1537C55.1231 68.1733 55.1043 68.2203 55.0761 68.2649C54.6908 68.8288 54.3478 69.4208 54.033 70.034C53.9414 70.2149 53.8568 70.3958 53.7699 70.579C53.488 71.1781 53.2366 71.7913 53.0275 72.4256C53.0087 72.4867 52.9805 72.5454 52.9617 72.6065C52.7432 73.2996 52.5858 74.0161 52.4613 74.7444C52.4308 74.9206 52.4049 75.0968 52.3791 75.273C52.2757 76.0131 52.2052 76.7625 52.2052 77.5284C52.2052 83.9045 55.9196 89.6745 61.6026 92.3739V119.817C61.6026 120.707 62.1054 121.52 62.9018 121.919C63.2025 122.07 63.5291 122.131 63.8533 122.145C63.8862 122.145 63.9191 122.166 63.952 122.166C63.9825 122.166 64.0107 122.152 64.0412 122.152C64.208 122.145 64.3702 122.114 64.5323 122.072C64.598 122.056 64.6615 122.048 64.7249 122.027C64.9481 121.95 65.1642 121.844 65.3592 121.696L74.7566 114.648C75.6658 113.967 75.9571 112.733 75.4497 111.718L73.6266 108.07L75.4497 104.421C75.7809 103.759 75.7809 102.981 75.4497 102.319L73.4598 98.3412L74.5546 92.8649C80.8297 90.4498 85.0961 84.3368 85.0961 77.5284C85.0961 76.7601 85.0256 76.0131 84.9222 75.273C84.8987 75.0968 84.8705 74.9206 84.8423 74.7444C84.7178 74.0161 84.5604 73.2972 84.3419 72.6042C84.3231 72.5431 84.2949 72.4843 84.2762 72.4233C84.0671 71.7889 83.8157 71.1734 83.5338 70.5767C83.4492 70.3934 83.3623 70.2125 83.2706 70.0316C82.9558 69.4208 82.6128 68.8264 82.2252 68.2626C82.197 68.2203 82.1758 68.1733 82.1476 68.131H85.0961C95.459 68.131 103.891 76.5628 103.891 86.9258V96.3231C103.891 97.62 104.941 98.6725 106.24 98.6725H125.035V112.769C125.035 114.065 126.085 115.118 127.384 115.118H136.782V126.865ZM136.782 110.419H129.734V98.6725H132.083C134.674 98.6725 136.782 100.78 136.782 103.371V110.419Z" fill="black"/>
<path d="M121.749 18.1536C122.192 18.326 122.693 18.2482 123.063 17.9493C123.433 17.651 123.616 17.1777 123.542 16.7082C123.467 16.2381 123.147 15.8445 122.703 15.6746C119.918 14.6027 116.811 14.7434 114.134 16.0617C111.457 17.38 109.452 19.7565 108.603 22.6174H106.697C105.963 22.6174 105.369 23.212 105.369 23.9454C105.369 24.6788 105.963 25.2734 106.697 25.2734H108.177C108.172 25.3985 108.168 25.5224 108.168 25.6488C108.168 26.023 108.188 26.3958 108.226 26.7674H106.697C105.963 26.7674 105.369 27.362 105.369 28.0954C105.369 28.8287 105.963 29.4233 106.697 29.4233H108.853C109.861 32.0871 111.889 34.2393 114.489 35.4032C117.088 36.5665 120.045 36.6463 122.703 35.6237C123.387 35.3598 123.728 34.5914 123.465 33.9066C123.201 33.2225 122.433 32.8814 121.748 33.1447C117.957 34.6004 113.676 33.0047 111.761 29.4233H119.645C120.379 29.4233 120.973 28.8287 120.973 28.0954C120.973 27.362 120.379 26.7674 119.645 26.7674H110.902C110.85 26.3971 110.824 26.023 110.824 25.6488C110.824 25.523 110.827 25.3979 110.833 25.2734H120.475C121.209 25.2734 121.803 24.6788 121.803 23.9454C121.803 23.212 121.209 22.6174 120.475 22.6174H111.414C113.071 18.566 117.663 16.5824 121.749 18.1536Z" fill="black"/>
</g>
<defs>
<clipPath id="clip0_271_11">
<rect width="140.961" height="140.961" fill="white" transform="translate(0.519653)"/>
</clipPath>
</defs>
</svg>
