<svg width="64" height="64" viewBox="0 0 64 64" fill="none" xmlns="http://www.w3.org/2000/svg">
<g filter="url(#filter0_d_369_455)">
<rect x="9.3584" y="7" width="45.5" height="45.5" rx="2.06818" fill="white" shape-rendering="crispEdges"/>
<mask id="mask0_369_455" style="mask-type:luminance" maskUnits="userSpaceOnUse" x="19" y="16" width="27" height="27">
<path d="M19.0103 16.6515H45.2072V42.8485H19.0103V16.6515Z" fill="white"/>
</mask>
<g mask="url(#mask0_369_455)">
<path d="M34.5768 16.8444L33.7909 16.7341C31.4289 16.3931 29.0187 16.7305 26.8411 17.707C24.6636 18.6834 22.8085 20.2587 21.4921 22.2493C20.0914 24.152 19.2565 26.4115 19.0833 28.7678C18.9101 31.124 19.4057 33.4813 20.5131 35.5684C20.6265 35.7775 20.697 36.0072 20.7207 36.2439C20.7444 36.4806 20.7207 36.7197 20.651 36.9472C20.0857 38.8912 19.5618 40.8491 19.0103 42.9035L19.6996 42.6967C21.561 42.2003 23.4224 41.704 25.2837 41.249C25.6766 41.1673 26.085 41.2057 26.4557 41.3593C28.1257 42.1743 29.9507 42.6227 31.8082 42.6744C33.6658 42.726 35.5129 42.3797 37.2256 41.6588C38.9383 40.9378 40.4769 39.8589 41.7383 38.4943C42.9997 37.1298 43.9546 35.5112 44.539 33.7472C45.1233 31.9832 45.3236 30.1146 45.1264 28.2669C44.9291 26.4191 44.339 24.6349 43.3954 23.034C42.4519 21.4331 41.1768 20.0526 39.6558 18.985C38.1348 17.9175 36.4031 17.1876 34.5768 16.8444ZM38.0513 34.9341C37.5502 35.3828 36.9391 35.6906 36.2803 35.8262C35.6216 35.9619 34.9386 35.9205 34.301 35.7062C31.4124 34.8916 28.9062 33.0791 27.2278 30.5909C26.5869 29.7107 26.0718 28.7455 25.6974 27.7231C25.4945 27.1299 25.4579 26.4925 25.5916 25.8799C25.7253 25.2674 26.0241 24.7032 26.4557 24.2485C26.6658 23.9804 26.9518 23.7817 27.2764 23.6784C27.6011 23.5751 27.9493 23.572 28.2757 23.6694C28.5515 23.7384 28.7445 24.1382 28.9927 24.4415C29.1949 25.0114 29.4293 25.5676 29.6959 26.1099C29.8977 26.3863 29.9821 26.7314 29.9304 27.0698C29.8787 27.4083 29.6953 27.7125 29.4201 27.9161C28.7996 28.4676 28.8962 28.9226 29.3374 29.5431C30.3123 30.9488 31.6583 32.0562 33.2256 32.7419C33.6668 32.9349 33.9977 32.9762 34.2872 32.5212C34.4113 32.342 34.5768 32.1903 34.7146 32.0249C35.5143 31.0184 35.2662 31.0322 36.5346 31.5837C36.9391 31.7537 37.3297 31.9513 37.7066 32.1765C38.0789 32.3972 38.6442 32.6315 38.7269 32.9625C38.8065 33.3214 38.7856 33.6954 38.6664 34.0433C38.5472 34.3911 38.3344 34.6994 38.0513 34.9341Z" fill="#FF6600"/>
</g>
</g>
<defs>
<filter id="filter0_d_369_455" x="0.396276" y="0.10606" width="63.4242" height="63.4242" filterUnits="userSpaceOnUse" color-interpolation-filters="sRGB">
<feFlood flood-opacity="0" result="BackgroundImageFix"/>
<feColorMatrix in="SourceAlpha" type="matrix" values="0 0 0 0 0 0 0 0 0 0 0 0 0 0 0 0 0 0 127 0" result="hardAlpha"/>
<feOffset dy="2.06818"/>
<feGaussianBlur stdDeviation="4.48106"/>
<feComposite in2="hardAlpha" operator="out"/>
<feColorMatrix type="matrix" values="0 0 0 0 0 0 0 0 0 0 0 0 0 0 0 0 0 0 0.2 0"/>
<feBlend mode="normal" in2="BackgroundImageFix" result="effect1_dropShadow_369_455"/>
<feBlend mode="normal" in="SourceGraphic" in2="effect1_dropShadow_369_455" result="shape"/>
</filter>
</defs>
</svg>
