<svg width="61" height="61" viewBox="0 0 61 61" fill="none" xmlns="http://www.w3.org/2000/svg">
<g clip-path="url(#clip0_151_468)">
<path d="M31.893 57.1144L35.9269 59.051C38.3264 60.2033 41.2526 59.2834 42.461 56.9944L51.0769 40.6786" stroke="white" stroke-width="1.56417" stroke-miterlimit="10" stroke-linecap="round"/>
<path d="M27.1154 50.0015L15.8968 38.3607L31.2094 24.944L42.4261 36.5848L27.1154 50.0015Z" stroke="white" stroke-width="1.56417" stroke-miterlimit="10" stroke-linecap="round" stroke-linejoin="round"/>
<path d="M53.3854 23.0074C51.443 24.7096 48.4199 24.5876 46.6363 22.7363C44.8527 20.8849 44.9786 18.0013 46.921 16.299C48.8634 14.5968 51.8864 14.7188 53.67 16.5702C55.4556 18.4235 55.3278 21.3051 53.3854 23.0074Z" stroke="white" stroke-width="1.56417" stroke-miterlimit="10" stroke-linecap="round" stroke-linejoin="round"/>
<path d="M51.96 21.5275C50.8735 22.4784 49.1848 22.4106 48.1875 21.3765C47.1901 20.3404 47.2618 18.7311 48.3463 17.7802C49.4327 16.8294 51.1214 16.8972 52.1188 17.9313C53.1161 18.9654 53.0445 20.5767 51.96 21.5275Z" stroke="white" stroke-width="1.56417" stroke-miterlimit="10"/>
<path d="M48.3269 17.5092L37.9003 6.80178C36.6125 5.47909 36.7345 3.40113 38.1676 2.22368C39.5251 1.1082 41.5644 1.21471 42.7883 2.46382L50.7206 10.5723" stroke="white" stroke-width="1.56417" stroke-miterlimit="10"/>
<path d="M12.4729 32.2913L8.68493 35.6125C6.45204 37.5685 6.30486 40.8801 8.35571 43.0103L14.7174 49.6121L15.2887 50.2047L21.6504 56.8066C23.7013 58.9349 27.1755 59.0763 29.4084 57.1184L54.404 35.2155C57.0745 32.8761 58.6606 29.6188 58.8136 26.1639L59.3519 13.9963C59.3887 13.1829 59.0828 12.387 58.5057 11.7866C57.9266 11.1863 57.1229 10.83 56.2689 10.7951L43.5106 10.2819C39.8873 10.1367 36.3511 11.3683 33.6805 13.7077" stroke="white" stroke-width="1.56417" stroke-miterlimit="10" stroke-linecap="round" stroke-linejoin="round"/>
<path d="M28.9339 43.3126C32.1361 43.3126 34.7321 40.7219 34.7321 37.526C34.7321 34.3302 32.1361 31.7395 28.9339 31.7395C25.7317 31.7395 23.1358 34.3302 23.1358 37.526C23.1358 40.7219 25.7317 43.3126 28.9339 43.3126Z" stroke="white" stroke-width="1.56417" stroke-miterlimit="10" stroke-linecap="round" stroke-linejoin="round"/>
<path d="M30.2751 35.7466C30.3771 35.7863 30.4927 35.7684 30.5778 35.6996C30.6631 35.6309 30.7052 35.5219 30.688 35.4137C30.6708 35.3055 30.5972 35.2148 30.4949 35.1757C29.8535 34.9289 29.1381 34.9613 28.5215 35.2649C27.9049 35.5684 27.4432 36.1157 27.2477 36.7746H26.8088C26.6398 36.7746 26.503 36.9115 26.503 37.0804C26.503 37.2493 26.6398 37.3863 26.8088 37.3863H27.1496C27.1486 37.4151 27.1475 37.4436 27.1475 37.4727C27.1475 37.5589 27.1521 37.6447 27.161 37.7303H26.8088C26.6398 37.7303 26.503 37.8672 26.503 38.0361C26.503 38.205 26.6398 38.342 26.8088 38.342H27.3054C27.5374 38.9554 28.0045 39.4511 28.6032 39.7191C29.2019 39.987 29.8827 40.0054 30.4948 39.7699C30.6525 39.7091 30.731 39.5321 30.6704 39.3744C30.6096 39.2169 30.4327 39.1384 30.275 39.199C29.402 39.5342 28.4159 39.1667 27.9751 38.342H29.7907C29.9596 38.342 30.0965 38.205 30.0965 38.0361C30.0965 37.8672 29.9596 37.7303 29.7907 37.7303H27.7772C27.7653 37.645 27.7592 37.5589 27.7592 37.4727C27.7592 37.4437 27.7599 37.4149 27.7613 37.3863H29.9818C30.1507 37.3863 30.2877 37.2493 30.2877 37.0804C30.2877 36.9115 30.1507 36.7746 29.9818 36.7746H27.8951C28.2768 35.8416 29.3342 35.3848 30.2751 35.7466Z" fill="white"/>
<path d="M15.2074 29.2781C22.8578 29.2781 29.0598 23.0762 29.0598 15.4257C29.0598 7.77519 22.8578 1.57324 15.2074 1.57324C7.55687 1.57324 1.35492 7.77519 1.35492 15.4257C1.35492 23.0762 7.55687 29.2781 15.2074 29.2781Z" stroke="white" stroke-width="1.56417" stroke-miterlimit="10" stroke-linecap="round" stroke-linejoin="round"/>
<path d="M14.4192 20.515C14.0028 20.515 13.5864 20.3562 13.2688 20.0386L9.41694 16.1868C8.78174 15.5515 8.78174 14.5213 9.41694 13.8861C10.0521 13.2509 11.0824 13.2509 11.7176 13.8861L14.4192 16.5876L21.6233 9.38351C22.2585 8.7483 23.2887 8.7483 23.9239 9.38351C24.5591 10.0187 24.5591 11.049 23.9239 11.6842L15.5695 20.0386C15.2538 20.3562 14.8355 20.515 14.4192 20.515Z" stroke="white" stroke-width="1.56417" stroke-miterlimit="10" stroke-linecap="round" stroke-linejoin="round"/>
<path d="M19.493 8.13427C18.1703 7.29185 16.6017 6.80383 14.9168 6.80383C10.209 6.80383 6.39197 10.6209 6.39197 15.3287C6.39197 20.0366 10.209 23.8536 14.9168 23.8536C19.6247 23.8536 23.4417 20.0366 23.4417 15.3287" stroke="white" stroke-width="1.56417" stroke-miterlimit="10" stroke-linecap="round" stroke-linejoin="round"/>
</g>
<defs>
<clipPath id="clip0_151_468">
<rect width="60" height="60" fill="white" transform="translate(0.355347 0.5)"/>
</clipPath>
</defs>
</svg>
